. 
  
http://www.torrenting.com/        :     Greatest Movie Tracker on The Net!!!
 
http://www.Torrenting.com          :     Once & For all ;)


               www . Torrenting . Com 

(((((((((((((= Enjoy No RAR releases =))))))))))))))))))))


...................................NFO:....................................

.[pre]  
    *********** ****    ****      ***      ******** *********** ****    *** **********
           *+*     +*+*+* *+*+*+   *+* *+*   *+*    *+*    *+*     *+*+*   *+* *+*        
           +*+     +*+ +*+*+ +*+  +*+   +*+  +*+           +*+     *+*+*+  +*+ +*+        
           +$+     +$+  +*+  +$+ +$++*++$++* *$*           +$+     +$+ +*+ +$+ +$++*++$  
           +$+     +$+       +$+ +$+     +$+ +$+   +$+$    +$+     +$+  +$+$+$ +$+        
           $+$     $+$       $+$ $+$     $+$ $+$    $+$    $+$     $+$   $+$+$ $+$        
       $$$$$$$$$$$ $$$       $$$ $$$     $$$  $$$$$$$$ $$$$$$$$$$$ $$$    $$$$ $$$$$$$$$$     
                                                



                           Another Fine Release Brought to you from - IMAGiNE                   
                                                 

********************************************************************************************************************                                
                              Rango 2011 BRRiP AC3 XViD - IMAGiNE
********************************************************************************************************************

Ripper ...........: IMAGiNE                                        IMDB Rating.......:7.9/10                             
Video Codec.......: XVID                                         Release Date......:27/06/11
Audio Codec.......:MP3                                           Theatre Date......:04/03/11
Audio Bitrate.....:128                                              Runtime.......:1h 51mn
Subtitles.........:NIL                                                 Language..........:ENGLISH
Resolution...... 720 x 304                                      IMDb URL..........:http://www.imdb.com/title/tt1192628/


[color=yellow]DETAILS:[/color]

Video
ID                               : 0
Format                           : MPEG-4 Visual
Format profile                   : Advanced Simple@L5
Format settings, BVOP            : 2
Format settings, QPel            : No
Format settings, GMC             : No warppoints
Format settings, Matrix          : Default (MPEG)
Muxing mode                      : Packed bitstream
Codec ID                         : XVID
Codec ID/Hint                    : XviD
Duration                         : 1h 51mn
Bit rate                         : 1 825 Kbps
Width                            : 720 pixels
Height                           : 304 pixels
Display aspect ratio             : 2.35:1
Frame rate                       : 23.976 fps
Color space                      : YUV
Chroma subsampling               : 4:2:0
Bit depth                        : 8 bits
Scan type                        : Progressive
Compression mode                 : Lossy
Bits/(Pixel*Frame)               : 0.348
Stream size                      : 1.43 GiB (80%)
Writing library                  : XviD 61

Audio
ID                               : 1
Format                           : AC-3
Format/Info                      : Audio Coding 3
Mode extension                   : CM (complete main)
Codec ID                         : 2000
Duration                         : 1h 51mn
Bit rate mode                    : Constant
Bit rate                         : 448 Kbps
Channel(s)                       : 6 channels
Channel positions                : Front: L C R, Side: L R, LFE
Sampling rate                    : 48.0 KHz
Bit depth                        : 16 bits
Compression mode                 : Lossy
Stream size                      : 358 MiB (20%)
Alignment                        : Aligned on interleaves
Interleave, duration             : 42 ms (1.00 video frame)
Interleave, preload duration     : 512 ms



[color=yellow]SOURCES:[/color]

VIDEO:Rango.2011.720p.Bluray.x264-VeDeTT
AUDIO:Rango.2011.720p.Bluray.x264-VeDeTT

[color=yellow]NOTES:[/color]

IMAGiNE bringing you another release..........Rango.2011

Here we go with a straight forward rip of the 720p....some slight tweaks and i mean slight
added and also converted the audio to AC3 from DTS and remuxed.

Enjoy folks :)


[color=yellow]SCREENS:[/color]


[color=yellow]GREETS:[/color]

FLAWL3SS,KINOPARK,Rx,ELEKTRI4KA,ADDiCTED,Autotron,CiNEDUB,CRYS,T0XiC,
And to all the other p2p grps past and present 

[COLOR=RED]Looking for these,syncers,cammers,audio,silver supplier.....Have anything to offer????......
Contact us imaginegroup@hushmail.com[/COLOR][/pre]